<svg width="256" height="256" viewBox="0 0 256 256" fill="none" xmlns="http://www.w3.org/2000/svg">
<path d="M54.9194 203.278C44.8513 193.21 37.4725 182.383 32.7834 170.798C28.2321 159.351 26.8529 148.041 28.6458 136.87C30.4387 125.698 35.6796 115.63 44.3685 106.665L75.4005 137.697C69.8837 144.042 67.2631 150.8 67.539 157.971C67.9527 165.281 71.4698 172.246 78.0899 178.866C84.8478 185.624 91.7438 189.348 98.7779 190.038C105.95 190.59 112.156 188.245 117.397 183.004C121.673 178.729 123.879 173.901 124.017 168.522C124.155 163.144 122.983 157.696 120.5 152.179C118.293 146.662 114.707 139.49 109.742 130.664C103.122 118.527 98.1571 108.183 94.8471 99.6316C91.8129 91.0805 90.8474 81.9779 91.9507 72.3235C93.3299 62.6691 98.5708 53.2906 107.674 44.1879C116.225 35.6368 125.81 30.3271 136.43 28.2583C147.05 26.1895 157.876 27.3619 168.91 31.7751C180.081 36.0508 190.632 43.1536 200.562 53.0837C215.458 67.979 223.871 83.702 225.802 100.252C228.008 116.803 223.112 132.043 211.113 145.973L179.254 114.113C183.943 108.872 185.874 102.666 185.046 95.494C184.495 88.3221 180.978 81.4951 174.496 75.0131C168.841 69.3582 162.841 66.2551 156.497 65.7034C150.291 65.2896 144.429 67.8412 138.912 73.358C135.051 77.2197 133.051 81.702 132.913 86.8051C133.051 91.9082 134.154 97.1491 136.223 102.528C138.568 107.907 142.153 115.079 146.981 124.043C153.601 136.18 158.497 146.593 161.669 155.282C164.841 163.971 165.807 173.212 164.565 183.004C163.324 192.796 158.221 202.175 149.256 211.139C141.533 218.863 132.361 224.035 121.741 226.655C111.122 229.275 99.95 228.725 88.227 225C76.6417 221.139 65.5393 213.898 54.9194 203.278Z" fill="black"/>
</svg>
